<?xml version="1.0" standalone="no"?>
<!DOCTYPE svg PUBLIC "-//W3C//DTD SVG 20010904//EN"
 "http://www.w3.org/TR/2001/REC-SVG-20010904/DTD/svg10.dtd">
<svg version="1.0" xmlns="http://www.w3.org/2000/svg"
 width="3663.000000pt" height="3663.000000pt" viewBox="0 0 3663.000000 3663.000000"
 preserveAspectRatio="xMidYMid meet">
<metadata>
Created by potrace 1.14, written by Peter Selinger 2001-2017
</metadata>
<g transform="translate(0.000000,3663.000000) scale(0.100000,-0.100000)"
fill="#000000" stroke="none">
<path d="M9107 29464 c-1 -1 -90 -4 -197 -8 -107 -3 -211 -8 -230 -10 -19 -3
-71 -7 -115 -11 -80 -6 -143 -12 -200 -20 -16 -2 -52 -7 -80 -10 -58 -7 -89
-12 -165 -25 -30 -5 -73 -12 -95 -15 -22 -3 -47 -7 -55 -10 -8 -2 -31 -6 -50
-9 -35 -6 -62 -11 -110 -21 -14 -3 -34 -7 -45 -9 -86 -17 -362 -86 -485 -122
-232 -68 -636 -216 -818 -300 -40 -19 -75 -34 -78 -34 -2 0 -90 -43 -196 -96
-332 -166 -637 -349 -923 -553 -109 -78 -313 -234 -375 -287 -28 -25 -177
-153 -236 -205 -93 -81 -459 -456 -565 -579 -515 -599 -898 -1233 -1186 -1965
-118 -301 -242 -713 -304 -1010 -11 -55 -23 -109 -25 -120 -2 -11 -6 -33 -9
-50 -3 -16 -7 -41 -10 -55 -3 -14 -7 -38 -10 -55 -3 -16 -7 -39 -9 -50 -2 -11
-7 -40 -10 -65 -3 -25 -8 -54 -10 -66 -2 -12 -7 -45 -11 -75 -3 -30 -8 -65
-10 -79 -2 -14 -7 -60 -10 -102 -3 -43 -8 -88 -10 -99 -3 -12 -7 -63 -10 -113
-4 -50 -8 -122 -11 -161 -3 -53 -8 -4090 -5 -4176 1 -14 7 -16 38 -8 21 4 61
11 89 14 28 3 60 7 72 10 12 2 72 11 134 20 62 9 124 18 138 20 14 2 45 7 70
10 25 3 56 8 70 10 14 2 45 7 70 10 56 8 98 14 130 20 14 2 45 7 70 10 25 4
56 8 70 10 14 2 45 7 70 10 25 3 56 8 70 10 14 2 44 7 68 10 24 3 53 7 65 10
12 2 45 7 72 10 28 4 106 15 175 25 69 11 141 21 160 24 52 7 226 33 270 41 8
1 38 6 65 9 67 9 148 20 220 31 22 4 51 8 65 10 14 2 43 6 65 10 22 3 54 8 70
10 17 2 93 13 170 25 77 11 185 27 240 35 55 7 114 16 130 19 17 2 52 7 78 11
27 4 56 8 65 10 10 1 40 6 67 9 28 4 61 9 75 11 52 7 116 17 131 20 9 2 40 6
70 10 30 3 95 12 144 20 50 8 110 17 135 20 25 3 86 12 135 19 134 22 166 26
210 32 22 2 83 11 135 20 52 8 112 17 135 20 22 2 81 11 130 19 50 8 111 16
137 19 47 6 72 10 183 26 33 5 78 12 100 15 22 3 49 8 60 10 11 2 47 7 80 11
33 3 62 7 65 9 3 2 28 6 55 9 90 11 141 19 215 32 22 3 194 28 275 38 17 3 59
9 95 15 36 6 85 13 110 16 25 3 58 8 73 11 16 3 38 7 50 8 34 4 130 18 147 21
14 3 132 20 210 31 19 2 62 9 95 14 33 5 85 12 115 15 30 4 58 9 61 11 3 2 32
6 64 10 32 3 68 8 79 10 12 2 41 7 66 10 25 3 52 8 61 9 9 2 40 6 69 10 29 4
61 8 71 10 9 2 39 6 66 10 26 4 59 9 73 11 63 9 309 45 345 49 22 3 51 8 65
10 14 2 43 7 65 10 23 3 50 7 60 9 11 2 43 7 70 10 28 4 127 18 220 32 94 14
186 27 205 30 34 4 66 9 125 18 17 3 66 10 110 16 112 16 136 20 165 25 14 3
45 7 70 10 25 2 56 7 70 10 14 3 75 12 137 20 62 9 120 18 130 19 10 2 41 7
68 10 28 4 61 9 75 11 14 2 61 9 105 15 44 6 91 13 105 15 14 3 43 7 65 10 22
3 51 8 65 10 14 2 45 7 70 10 86 12 223 35 227 38 2 2 -20 69 -48 148 -28 79
-66 189 -85 244 -20 55 -48 136 -64 180 -40 114 -85 241 -121 343 -17 48 -34
96 -39 107 -5 11 -20 54 -33 95 -14 41 -62 179 -107 305 -45 127 -97 275 -117
330 -43 123 -249 708 -638 1810 -163 462 -319 903 -345 980 -27 77 -70 199
-95 270 -102 285 -175 498 -173 500 2 1 66 -22 143 -51 132 -49 374 -138 710
-260 83 -30 159 -59 170 -64 11 -4 171 -63 355 -130 184 -67 376 -137 425
-155 172 -64 457 -169 1265 -465 228 -83 499 -183 601 -221 102 -38 189 -69
193 -69 4 0 22 -6 39 -14 18 -8 124 -48 237 -90 113 -41 318 -115 455 -166
138 -50 273 -99 300 -110 28 -10 118 -44 200 -74 446 -164 589 -215 593 -211
5 5 26 73 102 335 26 91 55 188 64 215 21 67 236 802 246 840 4 17 10 37 13
45 9 24 50 163 163 550 58 201 142 487 185 635 43 149 84 286 90 305 7 19 15
49 20 65 4 17 43 154 88 305 45 151 90 304 101 340 10 36 32 110 49 165 16 55
34 116 39 135 17 60 182 621 207 705 31 101 199 673 230 780 25 88 106 361
129 440 9 27 13 51 11 53 -4 4 -8624 9 -8628 6z"/>
<path d="M18913 29462 c-30 -3 -31 -4 -22 -35 6 -18 16 -54 24 -82 8 -27 35
-120 60 -205 26 -85 48 -159 49 -165 1 -5 9 -30 16 -55 8 -25 14 -47 15 -50 1
-3 9 -32 19 -65 10 -33 40 -134 66 -225 27 -91 95 -320 151 -510 55 -190 102
-349 103 -355 2 -5 11 -37 21 -70 10 -33 20 -64 21 -70 2 -11 233 -799 270
-920 37 -123 156 -526 164 -560 5 -16 25 -84 44 -150 20 -66 38 -127 40 -135
8 -32 109 -375 148 -500 11 -36 22 -74 25 -85 5 -20 39 -134 229 -780 58 -198
126 -430 150 -515 63 -215 114 -383 118 -387 3 -3 254 86 301 107 11 4 34 13
50 19 17 5 62 21 100 36 39 14 81 30 95 35 14 4 63 22 110 40 47 17 123 45
170 61 47 16 94 34 105 39 11 5 70 26 130 48 135 49 245 90 630 232 165 61
307 113 315 115 8 2 193 70 410 151 217 80 418 154 445 163 79 28 486 178 645
238 80 30 150 56 155 57 22 5 62 19 90 31 17 7 113 43 215 80 102 37 208 75
235 86 113 43 351 131 365 134 14 4 384 140 760 279 304 113 350 129 355 124
4 -4 -129 -392 -240 -698 -13 -36 -53 -148 -88 -250 -113 -319 -177 -501 -214
-605 -19 -55 -50 -142 -69 -194 -19 -52 -34 -98 -34 -102 0 -4 -5 -20 -12 -36
-6 -15 -12 -30 -13 -33 -1 -3 -4 -12 -8 -20 -3 -8 -13 -35 -21 -60 -15 -44
-66 -189 -181 -515 -31 -88 -74 -209 -95 -270 -21 -60 -62 -175 -90 -255 -28
-80 -58 -165 -66 -190 -8 -25 -19 -54 -24 -65 -5 -11 -22 -58 -38 -105 -30
-88 -88 -250 -192 -545 -33 -93 -62 -177 -64 -185 -2 -8 -25 -72 -50 -141 -25
-70 -46 -130 -46 -134 0 -4 -6 -21 -14 -38 -8 -18 -23 -59 -35 -92 -35 -103
-136 -393 -196 -560 -80 -224 -78 -214 -52 -220 12 -3 75 -12 139 -20 65 -9
126 -18 136 -20 11 -2 43 -6 72 -10 29 -4 62 -9 74 -11 12 -2 39 -7 61 -10 22
-2 51 -7 65 -9 14 -2 61 -9 105 -15 44 -6 91 -13 105 -15 34 -5 104 -15 137
-20 15 -2 42 -6 58 -8 31 -6 102 -16 145 -22 14 -2 45 -6 70 -10 25 -4 56 -8
70 -10 14 -2 88 -13 165 -25 77 -11 154 -22 170 -24 92 -13 132 -19 150 -22
11 -2 40 -7 65 -10 25 -3 52 -7 60 -9 8 -2 42 -7 75 -11 33 -3 63 -8 66 -10 3
-2 30 -6 60 -9 54 -6 92 -11 139 -20 14 -2 50 -7 80 -11 30 -3 57 -7 60 -9 3
-1 32 -6 65 -9 33 -4 67 -9 75 -11 8 -2 38 -6 65 -10 28 -3 79 -11 115 -16 36
-6 76 -12 90 -14 14 -2 39 -6 55 -9 17 -2 55 -8 85 -11 30 -4 63 -9 72 -11 9
-1 68 -10 130 -19 62 -9 124 -18 137 -20 13 -2 45 -7 70 -11 25 -3 57 -8 71
-10 14 -2 47 -6 74 -9 28 -4 52 -8 55 -10 3 -1 35 -6 71 -10 36 -4 67 -8 70
-10 3 -2 34 -6 70 -10 36 -4 74 -9 85 -11 11 -2 52 -9 90 -14 39 -6 81 -12 95
-15 24 -4 150 -22 220 -31 19 -3 64 -10 100 -15 36 -6 79 -12 95 -15 42 -5
175 -24 205 -29 14 -3 74 -11 135 -20 60 -8 119 -17 131 -19 12 -2 45 -7 74
-11 29 -4 60 -8 69 -10 9 -1 41 -6 71 -10 30 -4 64 -9 75 -11 11 -2 40 -7 65
-9 25 -3 52 -8 60 -10 8 -2 39 -7 69 -10 30 -4 62 -8 71 -10 9 -2 41 -6 70
-10 29 -4 62 -8 73 -11 11 -2 55 -8 97 -14 42 -6 86 -12 97 -14 11 -3 44 -7
74 -11 30 -3 61 -8 69 -10 8 -2 35 -6 60 -9 25 -3 54 -8 65 -10 11 -2 43 -7
70 -10 101 -15 121 -17 145 -21 14 -3 90 -14 170 -25 80 -11 156 -22 170 -25
14 -2 61 -9 105 -15 44 -6 91 -13 105 -15 14 -3 61 -9 105 -15 87 -12 127 -18
165 -25 14 -2 45 -7 70 -10 25 -4 56 -8 70 -10 14 -3 90 -14 169 -25 79 -11
154 -22 165 -25 12 -2 44 -7 71 -10 28 -3 91 -12 140 -20 50 -8 110 -17 135
-20 25 -3 56 -8 70 -10 14 -2 75 -11 135 -20 61 -9 124 -18 140 -20 17 -3 46
-7 65 -9 19 -2 62 -9 95 -15 33 -5 87 -13 120 -17 33 -3 62 -8 65 -9 3 -2 33
-6 65 -10 33 -3 67 -8 75 -10 8 -2 35 -7 60 -10 25 -3 56 -8 70 -10 44 -8 174
-26 215 -31 22 -3 65 -9 95 -14 30 -5 71 -11 90 -14 96 -13 137 -19 155 -23
11 -2 40 -6 65 -9 25 -2 52 -6 60 -9 22 -6 129 -19 170 -19 l35 -1 -1 1995 c0
1762 -3 2184 -18 2360 -12 144 -19 211 -36 350 -17 130 -56 368 -74 446 -2 12
-7 38 -10 57 -9 58 -83 359 -117 475 -120 419 -250 754 -440 1137 -55 110
-112 223 -128 250 -59 105 -75 133 -139 240 -172 288 -456 681 -657 910 -15
17 -50 57 -78 90 -89 103 -476 487 -597 592 -761 660 -1653 1147 -2565 1403
-44 12 -109 31 -145 41 -36 10 -76 20 -90 23 -14 3 -83 18 -155 35 -71 17
-143 33 -160 35 -16 3 -41 8 -55 11 -24 5 -225 38 -300 50 -54 8 -100 14 -165
21 -33 3 -71 7 -85 10 -14 2 -56 6 -95 10 -38 3 -90 7 -115 9 -25 3 -112 7
-195 11 -147 6 -8779 12 -8842 6z"/>
<path d="M2446 15763 c2 -1761 6 -2291 18 -2374 3 -13 7 -60 11 -104 3 -44 8
-93 10 -110 2 -16 6 -55 10 -85 14 -125 33 -257 56 -380 6 -36 13 -76 15 -90
6 -34 68 -306 93 -405 87 -352 231 -759 400 -1130 46 -100 141 -288 152 -299
5 -6 9 -15 9 -21 0 -17 167 -307 263 -458 100 -157 104 -164 143 -218 16 -24
48 -69 69 -99 70 -101 262 -349 285 -370 3 -3 25 -30 50 -60 25 -30 49 -60 55
-66 5 -6 39 -44 75 -85 84 -96 422 -435 525 -526 992 -882 2171 -1438 3468
-1638 89 -14 187 -28 217 -30 30 -3 66 -7 80 -10 14 -2 68 -7 120 -11 52 -3
103 -8 112 -10 77 -14 934 -17 4716 -17 2382 0 4334 2 4336 4 4 4 -42 165
-208 729 -35 118 -67 229 -71 245 -5 17 -10 35 -11 40 -11 33 -119 398 -163
550 -29 99 -64 216 -78 260 -13 44 -26 88 -28 98 -2 10 -15 55 -29 100 -14 45
-48 161 -76 257 -48 165 -75 257 -121 410 -10 36 -134 457 -274 935 -141 479
-264 899 -275 935 -11 36 -44 151 -75 255 -30 105 -63 215 -72 245 -9 30 -18
60 -19 65 -5 18 -140 479 -175 595 -11 36 -21 72 -23 81 -12 47 -30 105 -35
111 -6 7 -272 -87 -711 -251 -91 -34 -172 -64 -180 -66 -8 -2 -46 -16 -85 -31
-38 -14 -117 -43 -175 -64 -58 -21 -235 -86 -395 -145 -159 -59 -450 -165
-645 -237 -195 -71 -422 -155 -505 -185 -82 -31 -168 -62 -190 -70 -47 -17
-411 -150 -540 -198 -49 -18 -160 -58 -245 -89 -85 -31 -163 -61 -172 -66 -10
-6 -23 -10 -29 -10 -6 0 -25 -6 -42 -14 -18 -8 -115 -44 -217 -81 -102 -37
-232 -85 -290 -106 -58 -21 -143 -52 -190 -69 -47 -17 -92 -33 -100 -37 -8 -3
-17 -7 -20 -7 -9 -2 -104 -37 -125 -46 -11 -5 -96 -37 -190 -70 -93 -34 -192
-70 -220 -81 -27 -10 -134 -50 -237 -88 l-188 -68 7 26 c3 14 10 34 14 43 5 9
23 58 39 110 17 51 35 102 40 113 5 11 25 65 44 120 57 165 164 469 226 645
33 91 72 203 88 250 17 47 58 164 92 260 34 96 79 225 100 285 21 61 62 175
90 255 52 145 67 189 178 505 33 94 86 242 117 330 31 88 61 171 65 185 7 23
36 103 166 470 25 69 47 132 49 140 2 8 22 65 44 125 21 61 60 171 86 245 26
74 51 144 55 155 5 11 29 81 55 155 25 74 55 158 65 185 11 28 49 136 85 240
37 105 89 252 116 328 54 150 55 155 37 154 -18 -2 -135 13 -183 23 -22 5 -69
11 -105 15 -36 4 -68 9 -71 11 -4 2 -31 6 -60 9 -30 4 -79 10 -109 15 -30 5
-77 12 -105 16 -27 3 -58 8 -67 9 -9 2 -68 11 -130 20 -134 19 -165 24 -198
30 -14 2 -47 7 -75 10 -53 6 -93 12 -135 20 -14 3 -47 7 -75 11 -27 3 -57 8
-67 9 -9 2 -38 6 -65 10 -26 4 -59 8 -72 11 -13 2 -45 6 -70 10 -77 10 -105
14 -131 19 -14 2 -41 6 -60 9 -40 5 -238 34 -287 41 -18 3 -50 7 -70 10 -21 3
-49 8 -63 10 -14 3 -47 7 -75 11 -27 3 -58 8 -68 10 -10 1 -68 10 -130 19 -62
8 -121 17 -132 19 -11 2 -42 7 -70 10 -27 4 -61 9 -75 11 -14 2 -90 14 -170
25 -80 11 -156 23 -170 25 -14 2 -45 7 -70 10 -71 10 -113 16 -140 20 -22 4
-88 13 -205 30 -37 5 -148 22 -205 30 -14 3 -42 7 -62 10 -21 3 -55 8 -75 11
-21 3 -54 7 -73 10 -19 2 -60 8 -90 14 -30 5 -77 11 -105 15 -27 3 -90 12
-140 20 -49 8 -126 19 -170 25 -44 6 -91 13 -105 15 -170 27 -235 36 -280 40
-14 1 -34 5 -45 8 -11 3 -45 8 -76 12 -31 3 -65 7 -75 9 -21 4 -96 16 -134 21
-100 14 -189 27 -210 30 -72 12 -231 35 -275 40 -27 3 -72 10 -100 15 -27 5
-70 12 -95 15 -47 6 -308 44 -349 50 -13 2 -45 7 -70 11 -25 3 -57 8 -71 10
-14 2 -47 7 -75 10 -27 3 -69 10 -92 15 -24 5 -46 8 -50 7 -5 -1 -28 2 -53 6
-25 4 -57 9 -72 12 -16 2 -40 6 -55 9 -16 2 -50 7 -78 10 -27 4 -57 8 -65 10
-8 2 -39 7 -69 10 -30 4 -62 8 -71 10 -9 2 -41 6 -70 10 -29 4 -62 8 -73 11
-11 2 -55 8 -96 14 -42 6 -87 12 -101 15 -14 2 -61 9 -105 15 -44 6 -91 13
-104 15 -13 2 -45 7 -70 11 -25 3 -57 8 -71 10 -14 2 -42 6 -62 9 -21 3 -55 8
-75 11 -21 3 -54 7 -73 10 -19 2 -75 11 -125 18 -49 8 -106 17 -125 20 -99 14
-198 28 -220 31 -14 3 -90 14 -170 25 -146 21 -184 26 -230 35 -14 2 -45 7
-70 10 -25 3 -63 8 -85 12 -22 3 -49 7 -60 8 -20 3 -159 23 -205 30 -14 2
-106 16 -205 30 -99 14 -191 28 -205 30 -14 3 -50 7 -80 11 l-55 5 1 -1978z"/>
<path d="M34071 17730 c-19 -4 -59 -11 -90 -14 -31 -3 -67 -8 -81 -11 -22 -4
-44 -8 -140 -21 -20 -2 -45 -6 -56 -8 -12 -2 -45 -7 -75 -11 -30 -4 -56 -8
-59 -10 -3 -1 -32 -6 -65 -10 -78 -9 -115 -14 -141 -19 -12 -2 -45 -7 -74 -11
-29 -4 -61 -8 -70 -10 -9 -2 -41 -6 -70 -10 -29 -4 -60 -8 -69 -10 -9 -1 -52
-8 -96 -15 -44 -6 -91 -13 -105 -15 -14 -2 -47 -7 -75 -11 -27 -3 -57 -7 -65
-9 -22 -4 -88 -14 -135 -20 -23 -3 -50 -7 -60 -9 -11 -2 -42 -7 -70 -10 -27
-4 -61 -9 -75 -11 -14 -2 -76 -11 -138 -20 -62 -9 -121 -18 -130 -19 -9 -2
-42 -7 -72 -11 -30 -4 -62 -9 -70 -10 -8 -2 -37 -6 -65 -9 -56 -8 -107 -15
-145 -21 -14 -3 -72 -11 -130 -19 -58 -8 -168 -25 -245 -36 -128 -19 -162 -24
-235 -35 -14 -2 -61 -9 -105 -15 -44 -6 -91 -13 -105 -16 -14 -2 -43 -6 -65
-9 -86 -11 -121 -16 -135 -20 -8 -2 -37 -7 -65 -10 -106 -13 -166 -22 -205
-29 -14 -2 -47 -7 -73 -11 -27 -4 -57 -8 -66 -10 -10 -2 -42 -6 -71 -10 -29
-4 -60 -8 -69 -10 -9 -1 -38 -6 -66 -9 -27 -4 -61 -8 -75 -11 -14 -3 -38 -7
-55 -9 -16 -2 -50 -7 -75 -11 -25 -4 -56 -8 -70 -10 -14 -2 -45 -6 -70 -10
-25 -4 -58 -9 -75 -11 -16 -2 -41 -6 -55 -9 -14 -2 -45 -7 -70 -10 -25 -3 -54
-7 -65 -9 -11 -2 -45 -7 -75 -11 -30 -4 -62 -9 -71 -10 -9 -2 -40 -6 -69 -10
-29 -4 -60 -8 -69 -10 -9 -1 -38 -6 -66 -9 -27 -4 -75 -11 -105 -16 -30 -5
-75 -12 -100 -15 -25 -3 -56 -8 -70 -10 -14 -2 -43 -7 -65 -10 -23 -3 -50 -7
-61 -9 -12 -2 -45 -7 -74 -11 -29 -4 -60 -8 -69 -10 -9 -1 -38 -6 -66 -9 -27
-4 -61 -8 -75 -11 -14 -2 -43 -7 -65 -10 -22 -3 -51 -7 -65 -10 -41 -7 -102
-16 -150 -21 -25 -2 -70 -9 -100 -14 -30 -5 -76 -12 -101 -15 -26 -3 -58 -8
-70 -10 -13 -3 -44 -7 -69 -11 -25 -3 -70 -9 -100 -14 -30 -5 -75 -12 -100
-15 -57 -8 -108 -15 -140 -20 -116 -18 -162 -25 -205 -30 -27 -3 -72 -10 -100
-15 -27 -5 -72 -12 -100 -15 -27 -3 -62 -8 -77 -10 -50 -9 -137 -22 -265 -40
-23 -3 -56 -8 -73 -10 -16 -3 -45 -7 -62 -10 -18 -2 -51 -7 -73 -10 -52 -8
-80 -12 -135 -20 -25 -3 -56 -8 -70 -10 -31 -5 -108 -16 -135 -20 -84 -11
-185 -26 -201 -29 -10 -2 -41 -7 -69 -10 -27 -4 -122 -18 -210 -31 -88 -13
-178 -26 -200 -29 -77 -11 -390 -57 -415 -61 -14 -2 -45 -7 -70 -10 -25 -3
-52 -8 -60 -10 -8 -2 -40 -7 -70 -10 -30 -3 -80 -10 -110 -15 -30 -5 -77 -12
-105 -15 -27 -3 -61 -8 -75 -10 -14 -3 -43 -7 -65 -10 -61 -9 -148 -25 -151
-28 -2 -1 22 -72 52 -157 31 -85 64 -180 74 -210 10 -30 42 -120 70 -200 29
-80 79 -221 112 -315 33 -93 75 -213 93 -265 41 -118 136 -386 214 -607 32
-93 78 -220 100 -283 23 -63 44 -122 46 -130 2 -8 31 -91 65 -185 34 -93 63
-177 65 -185 2 -8 22 -64 43 -125 66 -184 153 -428 322 -910 89 -253 174 -496
190 -540 16 -44 56 -158 90 -253 33 -94 87 -250 121 -345 34 -94 65 -183 69
-197 5 -14 27 -77 50 -140 42 -115 90 -257 90 -265 0 -2 -21 5 -47 15 -27 11
-203 76 -393 145 -292 107 -484 177 -575 211 -11 4 -22 8 -25 9 -3 1 -12 5
-20 8 -8 3 -103 38 -210 77 -107 39 -260 95 -340 125 -80 29 -215 79 -300 110
-85 31 -164 60 -175 65 -11 5 -103 39 -205 76 -102 36 -225 81 -275 99 -49 18
-135 49 -190 69 -55 20 -116 43 -135 50 -19 8 -87 33 -150 56 -63 23 -124 45
-135 50 -11 5 -51 20 -90 33 -38 14 -131 48 -205 75 -142 53 -1011 372 -1165
427 -49 18 -151 55 -225 83 -377 140 -823 302 -825 300 -7 -11 -29 -80 -60
-188 -35 -121 -111 -381 -160 -545 -22 -73 -50 -171 -160 -545 -20 -69 -59
-201 -87 -295 -28 -93 -61 -206 -73 -250 -13 -44 -37 -127 -55 -185 -17 -58
-33 -112 -35 -120 -2 -8 -45 -154 -95 -325 -112 -376 -120 -405 -127 -430 -3
-11 -29 -101 -59 -200 -29 -99 -69 -236 -89 -305 -20 -69 -47 -161 -60 -205
-13 -44 -35 -120 -50 -170 -15 -49 -28 -97 -31 -105 -2 -8 -24 -85 -50 -170
-25 -85 -57 -191 -69 -235 -33 -113 -113 -388 -137 -465 -10 -36 -21 -72 -23
-80 -3 -13 -34 -119 -115 -390 -57 -190 -200 -683 -202 -697 -3 -14 384 -16
4347 -16 3807 0 4497 3 4715 18 90 6 281 24 307 29 18 3 68 10 153 21 49 6
113 17 245 40 148 26 360 74 575 130 203 53 641 204 828 286 23 11 63 28 90
40 514 227 990 511 1442 863 63 49 131 103 151 120 20 17 62 54 95 81 131 112
481 453 604 590 148 163 318 374 450 555 68 93 266 390 317 475 141 235 298
538 398 765 51 117 146 351 150 372 2 9 8 25 13 35 14 27 85 241 130 393 70
235 144 547 177 754 8 50 17 102 20 115 2 13 7 49 11 80 3 31 8 65 10 76 2 11
9 61 14 110 6 50 12 110 15 135 3 25 8 83 11 130 3 47 8 112 10 145 3 33 6
995 7 2138 l2 2077 -35 -1 c-19 -1 -50 -5 -69 -9z"/>
</g>
</svg>
